<?xml version="1.0" encoding="UTF-8"?>
<svg xmlns="http://www.w3.org/2000/svg" viewBox="0 0 24 24" fill="none" stroke="none">
  <rect width="24" height="24" rx="4" fill="#6B7280" />
  <path d="M12 4L4 8V16L12 20L20 16V8L12 4Z" fill="#9CA3AF" />
  <path d="M12 4L4 8V16L12 20L20 16V8L12 4Z" stroke="#1F2937" stroke-width="1.5" />
  <path d="M12 8L8 10V14L12 16L16 14V10L12 8Z" fill="#D1D5DB" />
  <path d="M12 8L8 10V14L12 16L16 14V10L12 8Z" stroke="#1F2937" stroke-width="1" />
  <path d="M12 10L10 11V13L12 14L14 13V11L12 10Z" fill="#1F2937" />
  <circle cx="12" cy="12" r="1" fill="#D1D5DB" />
</svg> 