<?xml version="1.0" encoding="UTF-8"?>
<svg width="64" height="64" viewBox="0 0 64 64" fill="none" xmlns="http://www.w3.org/2000/svg">
  <circle cx="32" cy="32" r="32" fill="#9C27B0"/>
  <path d="M20 20H44L42 32H22L20 20Z" fill="white"/>
  <path d="M24 36C25.1046 36 26 35.1046 26 34C26 32.8954 25.1046 32 24 32C22.8954 32 22 32.8954 22 34C22 35.1046 22.8954 36 24 36Z" fill="white"/>
  <path d="M40 36C41.1046 36 42 35.1046 42 34C42 32.8954 41.1046 32 40 32C38.8954 32 38 32.8954 38 34C38 35.1046 38.8954 36 40 36Z" fill="white"/>
  <path d="M26 24H38V28H26V24Z" fill="#9C27B0"/>
  <path d="M24 44H40V48H24V44Z" fill="white"/>
  <path d="M26 36V44" stroke="white" stroke-width="2"/>
  <path d="M38 36V44" stroke="white" stroke-width="2"/>
</svg> 