<svg width="600" height="400" viewBox="0 0 600 400" fill="none" xmlns="http://www.w3.org/2000/svg">
  <!-- Background -->
  <rect width="600" height="400" rx="20" fill="#F0F7FF" />
  
  <!-- Decorative elements -->
  <circle cx="100" cy="100" r="50" fill="#E6F0FF" opacity="0.5" />
  <circle cx="500" cy="300" r="70" fill="#E6F0FF" opacity="0.5" />
  <circle cx="300" cy="150" r="30" fill="#E6F0FF" opacity="0.5" />
  
  <!-- Document icon -->
  <rect x="200" y="100" width="200" height="250" rx="10" fill="white" stroke="#3B82F6" stroke-width="2" />
  <rect x="220" y="120" width="160" height="20" rx="5" fill="#E5E7EB" />
  <rect x="220" y="160" width="160" height="10" rx="5" fill="#E5E7EB" />
  <rect x="220" y="180" width="120" height="10" rx="5" fill="#E5E7EB" />
  <rect x="220" y="200" width="140" height="10" rx="5" fill="#E5E7EB" />
  <rect x="220" y="220" width="100" height="10" rx="5" fill="#E5E7EB" />
  <rect x="220" y="240" width="160" height="10" rx="5" fill="#E5E7EB" />
  <rect x="220" y="260" width="130" height="10" rx="5" fill="#E5E7EB" />
  <rect x="220" y="280" width="140" height="10" rx="5" fill="#E5E7EB" />
  <rect x="220" y="300" width="110" height="10" rx="5" fill="#E5E7EB" />
  
  <!-- Checkmark -->
  <path d="M150 200 L180 230 L240 170" stroke="#10B981" stroke-width="8" stroke-linecap="round" stroke-linejoin="round" fill="none" />
  
  <!-- AI chip -->
  <rect x="400" y="150" width="100" height="100" rx="10" fill="#3B82F6" />
  <rect x="420" y="170" width="60" height="10" rx="2" fill="white" />
  <rect x="420" y="190" width="40" height="10" rx="2" fill="white" />
  <rect x="420" y="210" width="50" height="10" rx="2" fill="white" />
  <rect x="420" y="230" width="30" height="10" rx="2" fill="white" />
  
  <!-- Connection lines -->
  <path d="M300 200 L400 200" stroke="#3B82F6" stroke-width="2" stroke-dasharray="5 5" />
  <path d="M300 200 L150 200" stroke="#10B981" stroke-width="2" stroke-dasharray="5 5" />
</svg> 